<svg width="32" height="32" xmlns="http://www.w3.org/2000/svg">
  <!-- Background -->
  <rect width="32" height="32" fill="#ffffff"/>
  
  <!-- Pixelated QR pattern - outer corners -->
  <rect x="2" y="2" width="2" height="2" fill="#1a1a1a"/>
  <rect x="4" y="2" width="2" height="2" fill="#1a1a1a"/>
  <rect x="6" y="2" width="2" height="2" fill="#1a1a1a"/>
  <rect x="8" y="2" width="2" height="2" fill="#1a1a1a"/>
  <rect x="10" y="2" width="2" height="2" fill="#1a1a1a"/>
  
  <rect x="2" y="4" width="2" height="2" fill="#1a1a1a"/>
  <rect x="10" y="4" width="2" height="2" fill="#1a1a1a"/>
  
  <rect x="2" y="6" width="2" height="2" fill="#1a1a1a"/>
  <rect x="4" y="6" width="2" height="2" fill="#1a1a1a"/>
  <rect x="6" y="6" width="2" height="2" fill="#1a1a1a"/>
  <rect x="10" y="6" width="2" height="2" fill="#1a1a1a"/>
  
  <rect x="2" y="8" width="2" height="2" fill="#1a1a1a"/>
  <rect x="4" y="8" width="2" height="2" fill="#1a1a1a"/>
  <rect x="6" y="8" width="2" height="2" fill="#1a1a1a"/>
  <rect x="10" y="8" width="2" height="2" fill="#1a1a1a"/>
  
  <rect x="2" y="10" width="2" height="2" fill="#1a1a1a"/>
  <rect x="10" y="10" width="2" height="2" fill="#1a1a1a"/>
  
  <!-- Top right corner -->
  <rect x="20" y="2" width="2" height="2" fill="#1a1a1a"/>
  <rect x="22" y="2" width="2" height="2" fill="#1a1a1a"/>
  <rect x="24" y="2" width="2" height="2" fill="#1a1a1a"/>
  <rect x="26" y="2" width="2" height="2" fill="#1a1a1a"/>
  <rect x="28" y="2" width="2" height="2" fill="#1a1a1a"/>
  
  <rect x="20" y="4" width="2" height="2" fill="#1a1a1a"/>
  <rect x="28" y="4" width="2" height="2" fill="#1a1a1a"/>
  
  <rect x="20" y="6" width="2" height="2" fill="#1a1a1a"/>
  <rect x="22" y="6" width="2" height="2" fill="#1a1a1a"/>
  <rect x="24" y="6" width="2" height="2" fill="#1a1a1a"/>
  <rect x="28" y="6" width="2" height="2" fill="#1a1a1a"/>
  
  <rect x="20" y="8" width="2" height="2" fill="#1a1a1a"/>
  <rect x="22" y="8" width="2" height="2" fill="#1a1a1a"/>
  <rect x="24" y="8" width="2" height="2" fill="#1a1a1a"/>
  <rect x="28" y="8" width="2" height="2" fill="#1a1a1a"/>
  
  <rect x="20" y="10" width="2" height="2" fill="#1a1a1a"/>
  <rect x="28" y="10" width="2" height="2" fill="#1a1a1a"/>
  
  <!-- Bottom left corner -->
  <rect x="2" y="20" width="2" height="2" fill="#1a1a1a"/>
  <rect x="4" y="20" width="2" height="2" fill="#1a1a1a"/>
  <rect x="6" y="20" width="2" height="2" fill="#1a1a1a"/>
  <rect x="8" y="20" width="2" height="2" fill="#1a1a1a"/>
  <rect x="10" y="20" width="2" height="2" fill="#1a1a1a"/>
  
  <rect x="2" y="22" width="2" height="2" fill="#1a1a1a"/>
  <rect x="10" y="22" width="2" height="2" fill="#1a1a1a"/>
  
  <rect x="2" y="24" width="2" height="2" fill="#1a1a1a"/>
  <rect x="4" y="24" width="2" height="2" fill="#1a1a1a"/>
  <rect x="6" y="24" width="2" height="2" fill="#1a1a1a"/>
  <rect x="10" y="24" width="2" height="2" fill="#1a1a1a"/>
  
  <rect x="2" y="26" width="2" height="2" fill="#1a1a1a"/>
  <rect x="4" y="26" width="2" height="2" fill="#1a1a1a"/>
  <rect x="6" y="26" width="2" height="2" fill="#1a1a1a"/>
  <rect x="10" y="26" width="2" height="2" fill="#1a1a1a"/>
  
  <rect x="2" y="28" width="2" height="2" fill="#1a1a1a"/>
  <rect x="10" y="28" width="2" height="2" fill="#1a1a1a"/>
  
  <!-- Middle pattern dots -->
  <rect x="14" y="14" width="2" height="2" fill="#1a1a1a"/>
  <rect x="16" y="14" width="2" height="2" fill="#1a1a1a"/>
  <rect x="14" y="16" width="2" height="2" fill="#1a1a1a"/>
  <rect x="16" y="16" width="2" height="2" fill="#1a1a1a"/>
  
  <rect x="14" y="18" width="2" height="2" fill="#1a1a1a"/>
  <rect x="18" y="14" width="2" height="2" fill="#1a1a1a"/>
  
  <rect x="20" y="18" width="2" height="2" fill="#1a1a1a"/>
  <rect x="22" y="16" width="2" height="2" fill="#1a1a1a"/>
  <rect x="24" y="20" width="2" height="2" fill="#1a1a1a"/>
  <rect x="18" y="22" width="2" height="2" fill="#1a1a1a"/>
  
  <!-- Happy Operators brand accent colors -->
  <rect x="0" y="0" width="4" height="1" fill="#FF6B6B"/>
  <rect x="28" y="0" width="4" height="1" fill="#4ECDC4"/>
  <rect x="0" y="31" width="4" height="1" fill="#4ECDC4"/>
  <rect x="28" y="31" width="4" height="1" fill="#FF6B6B"/>
</svg>
